<?xml version="1.0" encoding="UTF-8"?>
<svg id="Reseapro" xmlns="http://www.w3.org/2000/svg" viewBox="0 0 896.75 215.58">
  <defs>
    <style>
      .cls-1 {
        font-family: TimesNewRomanPSMT, 'Times New Roman';
      }

      .cls-2 {
        letter-spacing: 0em;
      }

      .cls-3 {
        letter-spacing: 0em;
      }

      .cls-4 {
        fill: #124bdc;
        font-size: 46.95px;
      }

      .cls-5 {
        letter-spacing: 0em;
      }

      .cls-6 {
        fill: #87131a;
      }

      .cls-7 {
        font-family: TimesNewRomanPS-BoldMT, 'Times New Roman';
        font-weight: 700;
      }

      .cls-8 {
        fill: #891820;
        font-family: MongolianBaiti, 'Mongolian Baiti';
        font-size: 129.84px;
      }

      .cls-9 {
        letter-spacing: 0em;
      }

      .cls-10 {
        letter-spacing: 0em;
      }

      .cls-11 {
        letter-spacing: 0em;
      }

      .cls-12 {
        letter-spacing: 0em;
      }

      .cls-13 {
        letter-spacing: 0em;
      }

      .cls-14 {
        fill: #a31e22;
      }
    </style>
  </defs>
  <g id="Layer_2" data-name="Layer 2">
    <path class="cls-14" d="m212.58,43.28c0,1.1-1.07,2.17-3.87,2.15-9.48-.06-18.96.08-28.44-.09-2.55-.04-3.06.81-3.04,3.13.17,17.96.29,35.92.29,53.88.07,4,.5,3.47,3.37,3.57,3.55.13,14.07-.34,17.62-.22,3.05.11,3.6,1.16,3.52,2.09-.07.82-.58,1.26-3.95,1.36-3.76.12-13.5.24-17.48.36-3.02.09-3.74-.34-3.78,3.39.06,9.25,0,18.5-.03,27.75-.02,6.13-.07,12.26-.07,18.39,0,5.57.02,5.53,5.47,5.54,9.26.02,18.53.06,27.79.21.75.01,1.49.98,2.24,1.51-.68.68-1.26,1.64-2.08,1.97-.95.37-2.12.22-3.2.23-8.62.08-17.23.21-25.85.19-12.39-.03-24.77-.17-37.16-.3-1.31-.01-3.05.43-3.01-1.83.03-2.21,1.73-1.78,3.06-1.81,3.98-.09,7.97-.17,11.95-.2,2.03-.01,2.79-.88,2.79-2.96,0-27.86.07-55.71.1-83.57,0-1.03-.12-5.01-.34-7.12-1.37,1.63-5.35,9.5-5.89,10.49-5.12,9.45-7.5,14.65-12.2,24.31-8.08,16.62-15.89,33.37-23.47,50.22-3.41,7.59-3.04,7.76-11.42,7.65-2.45-.03-4.74.71-6.18-2.83-7.36-18.12-15.15-36.07-22.7-54.12-7.05-16.86-14.04-33.74-20.94-50.66-1.46-4.08-1.98-5.36-3.71-10.1-.45-1.22-1.01-2.81.07-3.19.85-.3,1.61.64,2.28,1.89.91,1.71,1.56,3.61,2.14,4.99,9.75,23.3,18.87,44.97,28.6,68.27,2.56,6.14,5.31,12.21,8.01,18.29.43.96,1.04,1.84,2.19,2.51-1.94-5.33-3.77-10.69-5.83-15.97-4.09-10.51-8.33-20.96-12.47-31.45-4.06-10.29-8.07-20.6-12.06-30.92-.7-1.8-3.74-8.92-4.11-10.81-.14-.71.06-2.07.86-2.38.89-.34,2.2.64,2.48,1.31,1.92,4.55,6.07,14.45,7.78,19.09,2.78,7.55,5.5,15.13,8.26,22.69.1.28,7.78,20.94,8.64,20.97-.1-1.06-5.88-18.67-7.35-23.55-3.29-10.9-6.34-21.78-9.56-32.7-.43-1.48-.92-3.3-.58-4.88.35-1.65,1.14-3.22,2.01-5.52.58,2.01,1.01,3.47,1.43,4.93,6.81,23.97,13.64,47.94,20.43,71.92,2.81,9.93,5.47,19.9,8.34,29.82.53,1.83,1.46,4.35,2.62,4.3.66-.03,1.01.29,1.1-.24,2.27-12.5,6.12-24.47,10.24-36.32,6.2-17.86,13.38-35.24,20-52.95,2.25-6.03,4.53-12.18,6.95-18.15.86-2.11,2.15-2.73,4.26-2.18-12.12,32.98-27.82,70.96-34.97,95.16-.62,2.11-1.32,6.4-1.03,6.49,1.01.31,1.99-2.9,2.37-3.7,1.33-2.77,1.88-3.89,2.91-6.61,4.24-11.26,8.77-22.03,13.12-33.25,4.82-12.42,9.88-24.71,15.77-36.66,3.38-6.86,4.23-8.28,7.45-14.34.85-1.61,1.93-2.96,2.18-3.24.85-.95,2.17-1.62,2.98-1.05.73.51.26,1.92-.09,2.65-1.96,4.18-4.75,9.23-6.7,13.42-2.44,5.25-4.91,9.73-7.26,15.02.09.06-22.75,54.84-22.66,54.9.14.09,22.17-49.05,23.36-51.19,1.11-2,4.29-8.26,6.41-12.25,4.89-9.21,7.79-13.3,13.28-22.16,3.17-5.11,7.5-8.18,14.09-7.93,9.36.35,19.6,0,28.97-.01,1.37,0,3.74.63,3.74,2.37Z"/>
    <path class="cls-14" d="m49.41,100.73c0,18.71,0,37.43,0,56.14,0,5.02.96,7.44,5.92,7.61,3.12.1,7.68.09,10.8.27.86.05,2.39.61,2.4,1.56.01,1.32-1.47,1.89-2.32,1.92-6.67.29-13.35.34-20.02.41-4.95.05-9.91.13-14.86-.05-1.1-.04-3.23-.51-3.25-1.76s1.97-1.64,3.1-1.78c2.44-.31,3.22-.05,4.83-.22,6.98-.74,8.28-2.16,8.23-8.28-.22-26.99,0-53.99.04-80.99.01-9.14.04-18.28.24-27.42.06-2.74-.95-3.61-3.58-3.45-3.11.19-6.25.25-9.36.05-1.15-.08-3.32-.38-3.36-1.63s2.08-1.75,3.17-1.81c5.16-.31,10.33-.31,15.5-.47,1.8-.06,2.44.66,2.44,2.49-.05,19.14-.03,38.29-.03,57.43.04,0,.09,0,.13,0Z"/>
    <path class="cls-6" d="m119.06.33c24.99,0,49.99-.02,74.98,0,14.82.02,25.97,7.42,35.29,18.06,4.28,4.89,6.4,10.92,8.6,17.06,1.8,5.03,1.63,9.8,1.64,14.72.1,39.26.33,78.52.05,117.77-.14,19.12-9.96,32.63-26.58,41.67-8.7,4.73-17.94,6.01-27.69,5.96-43.52-.22-87.05-.19-130.57-.28-4.94-.01-9.96.32-14.8-.43-15.91-2.44-28.08-10.96-36.5-24.49C1.45,187.12-.02,183.3,0,178.93c.19-48.29.14-96.59.2-144.88,0-5.12,2.91-9.15,5.79-12.96C16.62,6.98,30.38-.43,48.61.02c23.47.58,46.97.14,70.45.14,0,.06,0,.11,0,.17Zm-.49,16.67s0-.09,0-.13c-23.27,0-46.53-.09-69.8.09-4.12.03-8.61.39-12.29,2.02-12.71,5.63-21.03,14.82-21.08,29.59-.09,24.63-.17,49.25-.13,73.88.02,15.81,0,31.62.49,47.41.28,8.89,4.9,15.89,11.99,21.18,6.72,5,14.33,7.1,22.69,7.09,45.67-.05,91.34-.1,137.01.04,16.47.05,34.76-11.19,34.47-34.14-.48-38.39-.17-76.78-.36-115.18-.02-3.91-.58-8.03-1.93-11.67-4.59-12.33-16.44-20.07-30.62-20.15-23.48-.13-46.96-.04-70.45-.04Z"/>
  </g>
  <g id="Layer_3" data-name="Layer 3">
    <text class="cls-8" transform="translate(250.06 153.79) scale(.8 1)"><tspan class="cls-3" x="0" y="0">M</tspan><tspan class="cls-5" x="115.08" y="0">a</tspan><tspan class="cls-10" x="172.61" y="0">nu</tspan><tspan class="cls-9" x="302.7" y="0">s</tspan><tspan class="cls-5" x="352.73" y="0">c</tspan><tspan class="cls-13" x="410.27" y="0">r</tspan><tspan class="cls-11" x="454.05" y="0">i</tspan><tspan class="cls-12" x="490.33" y="0">p</tspan><tspan class="cls-11" x="555.37" y="0">t</tspan><tspan class="cls-2" x="591.64" y="0">E</tspan><tspan class="cls-12" x="670.45" y="0">d</tspan><tspan class="cls-11" x="735.49" y="0">it</tspan></text>
    <text class="cls-4" transform="translate(674.88 197.73) scale(.9 1)"><tspan class="cls-1" x="0" y="0">by</tspan><tspan class="cls-7" x="46.94" y="0" xml:space="preserve"> Reseapro</tspan></text>
  </g>
</svg>